# xmcd
#
# Track frame offsets: 
#        150
#        63479
#        87920
#        116034
#        145460
#
# Disc length: 2389 seconds
#
# Revision: 7
# Processed by: cddbd v1.5.2PL0 Copyright (c) Steve Scherf et al.
# Submitted via: ExactAudioCopy v1.3
#
DISCID=46095305
DTITLE=John Coltrane - Coltrane [Deluxe Edition] - Disc1
DYEAR=1962
DGENRE=Jazz
TTITLE0=Out Of This World
TTITLE1=Soul Eyes
TTITLE2=The Inch Worm
TTITLE3=Tunji (Toon-Gee)
TTITLE4=Miles' Mode
EXTD=John Coltrane\nMcCoy Tyner\nJimmy Garrison\nElvin Jones\nLive Rec
EXTD=orded in Japan 1962\nImpules! Records - MCA Records 1962 1995 GRP
EXTD=Records 1995\nProduced by: Bob Thiele\n YEAR: 1962
EXTT0=(H. Arlen-J. Mercer) recorded 19.06.1962
EXTT1=(M. Waldron) recorded 19.06.1962
EXTT2=(F. Loesser) recorded 11.04.1962
EXTT3=(J. Coltrane) recorded 29.06.1962
EXTT4=(J. Coltrane) recorded 20.06.1962
PLAYORDER=
